<mxfile host="app.diagrams.net" modified="2022-11-01T13:53:57.746Z" agent="5.0 (X11; Ubuntu)" etag="ni14sMTTnXJxlS_6xtbf" version="20.5.1" type="github">
  <diagram id="alioKIWW-ntm_tTrTaUi" name="Page-1">
    <mxGraphModel dx="826" dy="481" grid="1" gridSize="10" guides="1" tooltips="1" connect="1" arrows="1" fold="1" page="1" pageScale="1" pageWidth="850" pageHeight="1100" math="0" shadow="0">
      <root>
        <mxCell id="0" />
        <mxCell id="1" parent="0" />
        <mxCell id="NKJN_YEbcXlvaFziTQ4O-7" style="edgeStyle=orthogonalEdgeStyle;rounded=0;orthogonalLoop=1;jettySize=auto;html=1;exitX=0.5;exitY=0;exitDx=0;exitDy=0;entryX=0.5;entryY=1;entryDx=0;entryDy=0;" edge="1" parent="1" source="NKJN_YEbcXlvaFziTQ4O-1" target="NKJN_YEbcXlvaFziTQ4O-5">
          <mxGeometry relative="1" as="geometry" />
        </mxCell>
        <mxCell id="NKJN_YEbcXlvaFziTQ4O-1" value="PostgreSQL" style="rounded=1;whiteSpace=wrap;html=1;" vertex="1" parent="1">
          <mxGeometry x="120" y="320" width="120" height="40" as="geometry" />
        </mxCell>
        <mxCell id="NKJN_YEbcXlvaFziTQ4O-10" style="edgeStyle=orthogonalEdgeStyle;rounded=0;orthogonalLoop=1;jettySize=auto;html=1;exitX=0.5;exitY=0;exitDx=0;exitDy=0;entryX=0.5;entryY=1;entryDx=0;entryDy=0;" edge="1" parent="1" source="NKJN_YEbcXlvaFziTQ4O-2" target="NKJN_YEbcXlvaFziTQ4O-4">
          <mxGeometry relative="1" as="geometry" />
        </mxCell>
        <mxCell id="NKJN_YEbcXlvaFziTQ4O-2" value="TypeSense" style="rounded=1;whiteSpace=wrap;html=1;" vertex="1" parent="1">
          <mxGeometry x="280" y="320" width="120" height="40" as="geometry" />
        </mxCell>
        <mxCell id="NKJN_YEbcXlvaFziTQ4O-3" value="Redis" style="rounded=1;whiteSpace=wrap;html=1;" vertex="1" parent="1">
          <mxGeometry x="440" y="320" width="120" height="40" as="geometry" />
        </mxCell>
        <mxCell id="NKJN_YEbcXlvaFziTQ4O-4" value="Search API" style="rounded=1;whiteSpace=wrap;html=1;" vertex="1" parent="1">
          <mxGeometry x="280" y="240" width="120" height="40" as="geometry" />
        </mxCell>
        <mxCell id="NKJN_YEbcXlvaFziTQ4O-8" style="edgeStyle=orthogonalEdgeStyle;rounded=0;orthogonalLoop=1;jettySize=auto;html=1;exitX=0.5;exitY=0;exitDx=0;exitDy=0;entryX=0.5;entryY=1;entryDx=0;entryDy=0;" edge="1" parent="1" source="NKJN_YEbcXlvaFziTQ4O-5" target="NKJN_YEbcXlvaFziTQ4O-6">
          <mxGeometry relative="1" as="geometry" />
        </mxCell>
        <mxCell id="NKJN_YEbcXlvaFziTQ4O-5" value="PostgREST" style="rounded=1;whiteSpace=wrap;html=1;" vertex="1" parent="1">
          <mxGeometry x="120" y="240" width="120" height="40" as="geometry" />
        </mxCell>
        <mxCell id="NKJN_YEbcXlvaFziTQ4O-6" value="REST API" style="rounded=1;whiteSpace=wrap;html=1;" vertex="1" parent="1">
          <mxGeometry x="120" y="160" width="120" height="40" as="geometry" />
        </mxCell>
      </root>
    </mxGraphModel>
  </diagram>
</mxfile>
